<svg xmlns="http://www.w3.org/2000/svg" xmlns:se="http://svg-edit.googlecode.com" xmlns:xlink="http://www.w3.org/1999/xlink" xmlns:dc="http://purl.org/dc/elements/1.1/" xmlns:cc="http://creativecommons.org/ns#" xmlns:rdf="http://www.w3.org/1999/02/22-rdf-syntax-ns#" xmlns:inkscape="http://www.inkscape.org/namespaces/inkscape" width="777" height="480">                                    <title>leaf</title>                                    <rect id="backgroundrect" width="100%" height="100%" x="0" y="0" fill="#FFFFFF" stroke="none"/>                                <g class="currentLayer"><title>Layer 1</title><path fill="#1aeb1a" fill-opacity="1" stroke="#009900" stroke-opacity="1" stroke-width="2" stroke-dasharray="none" stroke-linejoin="round" stroke-linecap="butt" stroke-dashoffset="" fill-rule="nonzero" opacity="1" marker-start="" marker-mid="" marker-end="" id="svg_1" d="M 278.5204029598163 183.72816577637775 C 421.2388535260373 185.66991340312904 439.6854559801747 186.6407872165047 438.83495145631065 186.40776699029126 C 439.6854559801747 186.6407872165047 492.1126419024599 191.49515628338298 491.26213592233006 191.2621359223301 C 492.1126419024599 191.49515628338298 540.6563325712426 195.37865153688557 539.8058252427185 195.14563106796115 C 540.6563325712426 195.37865153688557 579.4912851062687 197.32039916363686 578.6407766990291 197.0873786407767 C 579.4912851062687 197.32039916363686 614.4427423877922 197.32039916363686 613.5922330097087 197.0873786407767 C 614.4427423877922 197.32039916363686 580.4621589196444 203.1456420438908 579.6116504854368 202.9126213592233 C 580.4621589196444 203.1456420438908 539.685458757867 207.0291372973934 538.8349514563107 206.79611650485435 C 539.685458757867 207.0291372973934 493.0835157158356 208.97088492414474 492.2330097087378 208.7378640776699 C 493.0835157158356 208.97088492414474 436.7728345400477 211.88350636427168 435.92233009708735 211.6504854368932 C 436.7728345400477 211.88350636427168 277.54952914644065 208.97088492414474 276.6990291262136 208.7378640776699 C 277.54952914644065 208.97088492414474 135.8019523935953 181.78641814962646 278.5204029598163 183.72816577637775 z" style="color: rgb(0, 0, 0);"/></g></svg>